<mxfile host="Electron" agent="Mozilla/5.0 (Windows NT 10.0; Win64; x64) AppleWebKit/537.36 (KHTML, like Gecko) draw.io/25.0.2 Chrome/128.0.6613.186 Electron/32.2.5 Safari/537.36" version="25.0.2">
  <diagram id="C5RBs43oDa-KdzZeNtuy" name="Page-1">
    <mxGraphModel dx="1152" dy="741" grid="1" gridSize="10" guides="1" tooltips="1" connect="1" arrows="1" fold="1" page="1" pageScale="1" pageWidth="827" pageHeight="1169" math="0" shadow="0">
      <root>
        <mxCell id="WIyWlLk6GJQsqaUBKTNV-0" />
        <mxCell id="WIyWlLk6GJQsqaUBKTNV-1" parent="WIyWlLk6GJQsqaUBKTNV-0" />
        <mxCell id="jll7-muh70pwECgko0we-42" value="" style="html=1;whiteSpace=wrap;" parent="WIyWlLk6GJQsqaUBKTNV-1" vertex="1">
          <mxGeometry x="210" y="556" width="519" height="250" as="geometry" />
        </mxCell>
        <mxCell id="jll7-muh70pwECgko0we-22" value="" style="html=1;whiteSpace=wrap;" parent="WIyWlLk6GJQsqaUBKTNV-1" vertex="1">
          <mxGeometry x="760" y="230" width="360" height="250" as="geometry" />
        </mxCell>
        <mxCell id="jll7-muh70pwECgko0we-11" value="" style="html=1;whiteSpace=wrap;" parent="WIyWlLk6GJQsqaUBKTNV-1" vertex="1">
          <mxGeometry x="320" y="240" width="360" height="250" as="geometry" />
        </mxCell>
        <mxCell id="jll7-muh70pwECgko0we-7" style="edgeStyle=orthogonalEdgeStyle;rounded=0;orthogonalLoop=1;jettySize=auto;html=1;entryX=0;entryY=0.5;entryDx=0;entryDy=0;" parent="WIyWlLk6GJQsqaUBKTNV-1" source="jll7-muh70pwECgko0we-0" target="jll7-muh70pwECgko0we-1" edge="1">
          <mxGeometry relative="1" as="geometry" />
        </mxCell>
        <mxCell id="jll7-muh70pwECgko0we-0" value="InicioSesionGui" style="html=1;whiteSpace=wrap;" parent="WIyWlLk6GJQsqaUBKTNV-1" vertex="1">
          <mxGeometry x="359" y="290" width="110" height="50" as="geometry" />
        </mxCell>
        <mxCell id="jll7-muh70pwECgko0we-8" style="edgeStyle=orthogonalEdgeStyle;rounded=0;orthogonalLoop=1;jettySize=auto;html=1;entryX=0.5;entryY=0;entryDx=0;entryDy=0;" parent="WIyWlLk6GJQsqaUBKTNV-1" source="jll7-muh70pwECgko0we-1" target="jll7-muh70pwECgko0we-2" edge="1">
          <mxGeometry relative="1" as="geometry" />
        </mxCell>
        <mxCell id="jll7-muh70pwECgko0we-1" value="ArchivoPersistencia" style="html=1;whiteSpace=wrap;" parent="WIyWlLk6GJQsqaUBKTNV-1" vertex="1">
          <mxGeometry x="510" y="290" width="110" height="50" as="geometry" />
        </mxCell>
        <mxCell id="jll7-muh70pwECgko0we-9" style="edgeStyle=orthogonalEdgeStyle;rounded=0;orthogonalLoop=1;jettySize=auto;html=1;entryX=1;entryY=0.5;entryDx=0;entryDy=0;" parent="WIyWlLk6GJQsqaUBKTNV-1" source="jll7-muh70pwECgko0we-2" target="jll7-muh70pwECgko0we-3" edge="1">
          <mxGeometry relative="1" as="geometry" />
        </mxCell>
        <mxCell id="jll7-muh70pwECgko0we-2" value="Profesor" style="html=1;whiteSpace=wrap;" parent="WIyWlLk6GJQsqaUBKTNV-1" vertex="1">
          <mxGeometry x="510" y="380" width="110" height="50" as="geometry" />
        </mxCell>
        <mxCell id="jll7-muh70pwECgko0we-3" value="Estudiante" style="html=1;whiteSpace=wrap;" parent="WIyWlLk6GJQsqaUBKTNV-1" vertex="1">
          <mxGeometry x="359" y="380" width="110" height="50" as="geometry" />
        </mxCell>
        <mxCell id="jll7-muh70pwECgko0we-12" value="Inicio de sesión" style="text;align=center;fontStyle=1;verticalAlign=middle;spacingLeft=3;spacingRight=3;strokeColor=none;rotatable=0;points=[[0,0.5],[1,0.5]];portConstraint=eastwest;html=1;" parent="WIyWlLk6GJQsqaUBKTNV-1" vertex="1">
          <mxGeometry x="320" y="214" width="80" height="26" as="geometry" />
        </mxCell>
        <mxCell id="jll7-muh70pwECgko0we-17" style="edgeStyle=orthogonalEdgeStyle;rounded=0;orthogonalLoop=1;jettySize=auto;html=1;entryX=0;entryY=0.5;entryDx=0;entryDy=0;" parent="WIyWlLk6GJQsqaUBKTNV-1" source="jll7-muh70pwECgko0we-13" target="jll7-muh70pwECgko0we-14" edge="1">
          <mxGeometry relative="1" as="geometry" />
        </mxCell>
        <mxCell id="jll7-muh70pwECgko0we-13" value="RegistroGui" style="html=1;whiteSpace=wrap;" parent="WIyWlLk6GJQsqaUBKTNV-1" vertex="1">
          <mxGeometry x="790" y="290" width="110" height="50" as="geometry" />
        </mxCell>
        <mxCell id="jll7-muh70pwECgko0we-19" style="edgeStyle=orthogonalEdgeStyle;rounded=0;orthogonalLoop=1;jettySize=auto;html=1;entryX=0.5;entryY=0;entryDx=0;entryDy=0;" parent="WIyWlLk6GJQsqaUBKTNV-1" source="jll7-muh70pwECgko0we-14" target="jll7-muh70pwECgko0we-15" edge="1">
          <mxGeometry relative="1" as="geometry" />
        </mxCell>
        <mxCell id="jll7-muh70pwECgko0we-14" value="ArchivoPersistencia" style="html=1;whiteSpace=wrap;" parent="WIyWlLk6GJQsqaUBKTNV-1" vertex="1">
          <mxGeometry x="939" y="290" width="110" height="50" as="geometry" />
        </mxCell>
        <mxCell id="jll7-muh70pwECgko0we-20" style="edgeStyle=orthogonalEdgeStyle;rounded=0;orthogonalLoop=1;jettySize=auto;html=1;entryX=1;entryY=0.5;entryDx=0;entryDy=0;" parent="WIyWlLk6GJQsqaUBKTNV-1" source="jll7-muh70pwECgko0we-15" target="jll7-muh70pwECgko0we-16" edge="1">
          <mxGeometry relative="1" as="geometry" />
        </mxCell>
        <mxCell id="jll7-muh70pwECgko0we-15" value="Profesor" style="html=1;whiteSpace=wrap;" parent="WIyWlLk6GJQsqaUBKTNV-1" vertex="1">
          <mxGeometry x="939" y="380" width="110" height="50" as="geometry" />
        </mxCell>
        <mxCell id="jll7-muh70pwECgko0we-16" value="Estudiante" style="html=1;whiteSpace=wrap;" parent="WIyWlLk6GJQsqaUBKTNV-1" vertex="1">
          <mxGeometry x="790" y="380" width="110" height="50" as="geometry" />
        </mxCell>
        <mxCell id="jll7-muh70pwECgko0we-23" value="Registro de nuevo usuario" style="text;align=center;fontStyle=1;verticalAlign=middle;spacingLeft=3;spacingRight=3;strokeColor=none;rotatable=0;points=[[0,0.5],[1,0.5]];portConstraint=eastwest;html=1;" parent="WIyWlLk6GJQsqaUBKTNV-1" vertex="1">
          <mxGeometry x="790" y="204" width="80" height="26" as="geometry" />
        </mxCell>
        <mxCell id="jll7-muh70pwECgko0we-38" style="edgeStyle=orthogonalEdgeStyle;rounded=0;orthogonalLoop=1;jettySize=auto;html=1;entryX=0;entryY=0.5;entryDx=0;entryDy=0;" parent="WIyWlLk6GJQsqaUBKTNV-1" source="jll7-muh70pwECgko0we-33" target="jll7-muh70pwECgko0we-34" edge="1">
          <mxGeometry relative="1" as="geometry" />
        </mxCell>
        <mxCell id="jll7-muh70pwECgko0we-33" value="ProfesorGui" style="html=1;whiteSpace=wrap;" parent="WIyWlLk6GJQsqaUBKTNV-1" vertex="1">
          <mxGeometry x="269" y="596" width="110" height="50" as="geometry" />
        </mxCell>
        <mxCell id="jll7-muh70pwECgko0we-34" value="AgregarActividadGui" style="html=1;whiteSpace=wrap;" parent="WIyWlLk6GJQsqaUBKTNV-1" vertex="1">
          <mxGeometry x="419" y="596" width="110" height="50" as="geometry" />
        </mxCell>
        <mxCell id="jll7-muh70pwECgko0we-40" style="edgeStyle=orthogonalEdgeStyle;rounded=0;orthogonalLoop=1;jettySize=auto;html=1;entryX=1;entryY=0.5;entryDx=0;entryDy=0;" parent="WIyWlLk6GJQsqaUBKTNV-1" source="jll7-muh70pwECgko0we-35" target="jll7-muh70pwECgko0we-36" edge="1">
          <mxGeometry relative="1" as="geometry">
            <Array as="points">
              <mxPoint x="624" y="711" />
            </Array>
          </mxGeometry>
        </mxCell>
        <mxCell id="jll7-muh70pwECgko0we-35" value="Profesor" style="html=1;whiteSpace=wrap;" parent="WIyWlLk6GJQsqaUBKTNV-1" vertex="1">
          <mxGeometry x="569" y="596" width="110" height="50" as="geometry" />
        </mxCell>
        <mxCell id="jll7-muh70pwECgko0we-41" style="edgeStyle=orthogonalEdgeStyle;rounded=0;orthogonalLoop=1;jettySize=auto;html=1;entryX=1;entryY=0.5;entryDx=0;entryDy=0;" parent="WIyWlLk6GJQsqaUBKTNV-1" source="jll7-muh70pwECgko0we-36" target="jll7-muh70pwECgko0we-37" edge="1">
          <mxGeometry relative="1" as="geometry" />
        </mxCell>
        <mxCell id="jll7-muh70pwECgko0we-36" value="ArchivoPersistencia" style="html=1;whiteSpace=wrap;" parent="WIyWlLk6GJQsqaUBKTNV-1" vertex="1">
          <mxGeometry x="499" y="686" width="110" height="50" as="geometry" />
        </mxCell>
        <mxCell id="jll7-muh70pwECgko0we-37" value="Actividad" style="html=1;whiteSpace=wrap;" parent="WIyWlLk6GJQsqaUBKTNV-1" vertex="1">
          <mxGeometry x="339" y="686" width="110" height="50" as="geometry" />
        </mxCell>
        <mxCell id="jll7-muh70pwECgko0we-39" style="edgeStyle=orthogonalEdgeStyle;rounded=0;orthogonalLoop=1;jettySize=auto;html=1;entryX=0;entryY=0.5;entryDx=0;entryDy=0;" parent="WIyWlLk6GJQsqaUBKTNV-1" source="jll7-muh70pwECgko0we-34" target="jll7-muh70pwECgko0we-35" edge="1">
          <mxGeometry relative="1" as="geometry" />
        </mxCell>
        <mxCell id="jll7-muh70pwECgko0we-43" value="Creación de una actividad por parte del profesor" style="text;align=center;fontStyle=1;verticalAlign=middle;spacingLeft=3;spacingRight=3;strokeColor=none;rotatable=0;points=[[0,0.5],[1,0.5]];portConstraint=eastwest;html=1;" parent="WIyWlLk6GJQsqaUBKTNV-1" vertex="1">
          <mxGeometry x="309" y="526" width="80" height="26" as="geometry" />
        </mxCell>
        <mxCell id="jll7-muh70pwECgko0we-55" value="" style="html=1;whiteSpace=wrap;" parent="WIyWlLk6GJQsqaUBKTNV-1" vertex="1">
          <mxGeometry x="810" y="556" width="360" height="250" as="geometry" />
        </mxCell>
        <mxCell id="jll7-muh70pwECgko0we-56" style="edgeStyle=orthogonalEdgeStyle;rounded=0;orthogonalLoop=1;jettySize=auto;html=1;entryX=0;entryY=0.5;entryDx=0;entryDy=0;" parent="WIyWlLk6GJQsqaUBKTNV-1" source="jll7-muh70pwECgko0we-57" target="jll7-muh70pwECgko0we-59" edge="1">
          <mxGeometry relative="1" as="geometry" />
        </mxCell>
        <mxCell id="jll7-muh70pwECgko0we-57" value="EstudianteGui" style="html=1;whiteSpace=wrap;" parent="WIyWlLk6GJQsqaUBKTNV-1" vertex="1">
          <mxGeometry x="849" y="606" width="110" height="50" as="geometry" />
        </mxCell>
        <mxCell id="jll7-muh70pwECgko0we-58" style="edgeStyle=orthogonalEdgeStyle;rounded=0;orthogonalLoop=1;jettySize=auto;html=1;entryX=0.5;entryY=0;entryDx=0;entryDy=0;" parent="WIyWlLk6GJQsqaUBKTNV-1" source="jll7-muh70pwECgko0we-59" target="jll7-muh70pwECgko0we-61" edge="1">
          <mxGeometry relative="1" as="geometry" />
        </mxCell>
        <mxCell id="jll7-muh70pwECgko0we-59" value="InscribirseLearningPathGui" style="html=1;whiteSpace=wrap;" parent="WIyWlLk6GJQsqaUBKTNV-1" vertex="1">
          <mxGeometry x="1000" y="606" width="160" height="50" as="geometry" />
        </mxCell>
        <mxCell id="jll7-muh70pwECgko0we-60" style="edgeStyle=orthogonalEdgeStyle;rounded=0;orthogonalLoop=1;jettySize=auto;html=1;entryX=1;entryY=0.5;entryDx=0;entryDy=0;" parent="WIyWlLk6GJQsqaUBKTNV-1" source="jll7-muh70pwECgko0we-61" target="jll7-muh70pwECgko0we-62" edge="1">
          <mxGeometry relative="1" as="geometry" />
        </mxCell>
        <mxCell id="jll7-muh70pwECgko0we-61" value="Estudiante" style="html=1;whiteSpace=wrap;" parent="WIyWlLk6GJQsqaUBKTNV-1" vertex="1">
          <mxGeometry x="1025" y="696" width="110" height="50" as="geometry" />
        </mxCell>
        <mxCell id="jll7-muh70pwECgko0we-62" value="ArchivoPersistencia" style="html=1;whiteSpace=wrap;" parent="WIyWlLk6GJQsqaUBKTNV-1" vertex="1">
          <mxGeometry x="849" y="696" width="110" height="50" as="geometry" />
        </mxCell>
        <mxCell id="jll7-muh70pwECgko0we-63" value="Inscribirse a un Learning Path por parte del estudiante" style="text;align=center;fontStyle=1;verticalAlign=middle;spacingLeft=3;spacingRight=3;strokeColor=none;rotatable=0;points=[[0,0.5],[1,0.5]];portConstraint=eastwest;html=1;" parent="WIyWlLk6GJQsqaUBKTNV-1" vertex="1">
          <mxGeometry x="920" y="530" width="80" height="26" as="geometry" />
        </mxCell>
      </root>
    </mxGraphModel>
  </diagram>
</mxfile>
